<?xml version="1.0" standalone="no"?><svg xmlns="http://www.w3.org/2000/svg" viewBox="0 0 1440 320"><path fill="#774bbd" fill-opacity="1" d="M0,64L40,90.7C80,117,160,171,240,176C320,181,400,139,480,149.3C560,160,640,224,720,245.3C800,267,880,245,960,224C1040,203,1120,181,1200,149.3C1280,117,1360,75,1400,53.3L1440,32L1440,320L1400,320C1360,320,1280,320,1200,320C1120,320,1040,320,960,320C880,320,800,320,720,320C640,320,560,320,480,320C400,320,320,320,240,320C160,320,80,320,40,320L0,320Z"></path></svg>